<?xml version="1.0" encoding="UTF-8"?>
<svg width="72px" height="72px" viewBox="0 0 72 72" version="1.1" xmlns="http://www.w3.org/2000/svg" xmlns:xlink="http://www.w3.org/1999/xlink">
    <!-- Generator: Sketch 53.2 (72643) - https://sketchapp.com -->
    <title>icons</title>
    <desc>Created with Sketch.</desc>
    <g id="Symbols" stroke="none" stroke-width="1" fill="none" fill-rule="evenodd">
        <g id="Components/Promo-Blocks/Regular" transform="translate(-135.000000, -24.000000)">
            <g id="icons" transform="translate(135.000000, 24.000000)">
                <circle id="Oval" fill="#006A4D" fill-rule="nonzero" cx="36" cy="36" r="36"></circle>
                <g id="Icons/UI/Meeting" transform="translate(12.000000, 12.000000)" fill="#FFFFFF">
                    <path d="M29,30 L19,30 L9.91304348,30 L9.91304348,23 L4,23 L4,33.875 L15.6956522,33.875 L15.6956522,40 L31.3043478,40 L31.3043478,33.875 L44,33.875 L44,23 L38.0869565,23 L38.0869565,30 L29,30 Z M19,28 L19,22.8 C19,21.8058875 19.8058875,21 20.8,21 L27.2,21 C28.1941125,21 29,21.8058875 29,22.8 L29,28 L36.0869565,28 L36.0869565,22.8 C36.0869565,21.8058875 36.892844,21 37.8869565,21 L44.2173913,21 C45.2018989,21 46,21.7835017 46,22.75 L46,34.125 C46,35.0914983 45.2018989,35.875 44.2173913,35.875 L33.3043478,35.875 L33.3043478,40.0205078 L13.6956522,40.0205078 L13.6956522,35.875 L3.7826087,35.875 C2.7981011,35.875 2,35.0914983 2,34.125 L2,22.75 C2,21.7835017 2.7981011,21 3.7826087,21 L10.1130435,21 C11.107156,21 11.9130435,21.8058875 11.9130435,22.8 L11.9130435,28 L19,28 Z M21,28 L27,28 L27,23 L21,23 L21,28 Z M24,18 C21.2385763,18 19,15.7614237 19,13 C19,10.2385763 21.2385763,8 24,8 C26.7614237,8 29,10.2385763 29,13 C29,15.7614237 26.7614237,18 24,18 Z M24,16 C25.6568542,16 27,14.6568542 27,13 C27,11.3431458 25.6568542,10 24,10 C22.3431458,10 21,11.3431458 21,13 C21,14.6568542 22.3431458,16 24,16 Z M41,18 C38.2385763,18 36,15.7614237 36,13 C36,10.2385763 38.2385763,8 41,8 C43.7614237,8 46,10.2385763 46,13 C46,15.7614237 43.7614237,18 41,18 Z M41,16 C42.6568542,16 44,14.6568542 44,13 C44,11.3431458 42.6568542,10 41,10 C39.3431458,10 38,11.3431458 38,13 C38,14.6568542 39.3431458,16 41,16 Z M7,18 C4.23857625,18 2,15.7614237 2,13 C2,10.2385763 4.23857625,8 7,8 C9.76142375,8 12,10.2385763 12,13 C12,15.7614237 9.76142375,18 7,18 Z M7,16 C8.65685425,16 10,14.6568542 10,13 C10,11.3431458 8.65685425,10 7,10 C5.34314575,10 4,11.3431458 4,13 C4,14.6568542 5.34314575,16 7,16 Z" id="Combined-Shape"></path>
                </g>
            </g>
        </g>
    </g>
</svg>