<?xml version="1.0" encoding="UTF-8"?>
<svg width="24px" height="17px" viewBox="0 0 24 17" version="1.1" xmlns="http://www.w3.org/2000/svg" xmlns:xlink="http://www.w3.org/1999/xlink">
    <!-- Generator: Sketch 53.2 (72643) - https://sketchapp.com -->
    <title>Combined Shape</title>
    <desc>Created with Sketch.</desc>
    <g id="Final" stroke="none" stroke-width="1" fill="none" fill-rule="evenodd">
        <g id="Property-Details---Mobile" transform="translate(-24.000000, -2842.000000)" fill="#231F20" fill-rule="nonzero">
            <g id="Icons/Utilities/Black/Document-Copy" transform="translate(24.000000, 2842.000000)">
                <path d="M7.84782609,16.7486572 L7.84782609,16.75 L15.6521739,16.75 L15.6521739,16.7486572 L7.84782609,16.7486572 Z M16.6521739,16.7590332 L16.6521739,16.7602539 L6.84782609,16.7602539 L6.84782609,16.7590332 L6.59782609,16.7590332 L6.59782609,15.1793693 L1.89130435,15.1793693 C1.26200191,15.1793693 0.75,14.6772482 0.75,14.0555217 L0.75,8.37384762 C0.75,7.75212115 1.26200191,7.25 1.89130435,7.25 L5.05652174,7.25 C5.6916492,7.25 6.20652174,7.76434513 6.20652174,8.39882201 L6.20652174,10.7464148 L9.25,10.7464148 L9.25,8.39882201 C9.25,7.76434513 9.76487254,7.25 10.4,7.25 L13.6,7.25 C14.2351275,7.25 14.75,7.76434513 14.75,8.39882201 L14.75,10.7464148 L17.7934783,10.7464148 L17.7934783,8.39882201 C17.7934783,7.76434513 18.3083508,7.25 18.9434783,7.25 L22.1086957,7.25 C22.7379981,7.25 23.25,7.75212115 23.25,8.37384762 L23.25,14.0555217 C23.25,14.6772482 22.7379981,15.1793693 22.1086957,15.1793693 L16.9021739,15.1793693 L16.9021739,16.7590332 L16.6521739,16.7590332 Z M19.2934783,12.25 L4.70652174,12.25 L4.70652174,8.75 L2.25,8.75 L2.25,13.6875 L8.09782609,13.6875 L8.09782609,16.75 L15.4021739,16.75 L15.4021739,13.6875 L21.75,13.6875 L21.75,8.75 L19.2934783,8.75 L19.2934783,12.25 Z M13.25,10.75 L13.25,8.75 L10.75,8.75 L10.75,10.75 L13.25,10.75 Z M12,6.25 C10.4812169,6.25 9.25,5.01878306 9.25,3.5 C9.25,1.98121694 10.4812169,0.75 12,0.75 C13.5187831,0.75 14.75,1.98121694 14.75,3.5 C14.75,5.01878306 13.5187831,6.25 12,6.25 Z M12,4.75 C12.6903559,4.75 13.25,4.19035594 13.25,3.5 C13.25,2.80964406 12.6903559,2.25 12,2.25 C11.3096441,2.25 10.75,2.80964406 10.75,3.5 C10.75,4.19035594 11.3096441,4.75 12,4.75 Z M20.5,6.25 C18.9812169,6.25 17.75,5.01878306 17.75,3.5 C17.75,1.98121694 18.9812169,0.75 20.5,0.75 C22.0187831,0.75 23.25,1.98121694 23.25,3.5 C23.25,5.01878306 22.0187831,6.25 20.5,6.25 Z M20.5,4.75 C21.1903559,4.75 21.75,4.19035594 21.75,3.5 C21.75,2.80964406 21.1903559,2.25 20.5,2.25 C19.8096441,2.25 19.25,2.80964406 19.25,3.5 C19.25,4.19035594 19.8096441,4.75 20.5,4.75 Z M3.5,6.25 C1.98121694,6.25 0.75,5.01878306 0.75,3.5 C0.75,1.98121694 1.98121694,0.75 3.5,0.75 C5.01878306,0.75 6.25,1.98121694 6.25,3.5 C6.25,5.01878306 5.01878306,6.25 3.5,6.25 Z M3.5,4.75 C4.19035594,4.75 4.75,4.19035594 4.75,3.5 C4.75,2.80964406 4.19035594,2.25 3.5,2.25 C2.80964406,2.25 2.25,2.80964406 2.25,3.5 C2.25,4.19035594 2.80964406,4.75 3.5,4.75 Z" id="Combined-Shape"></path>
            </g>
        </g>
    </g>
</svg>